<?xml version="1.0" standalone="no"?>
<!DOCTYPE svg PUBLIC "-//W3C//DTD SVG 20010904//EN"
 "http://www.w3.org/TR/2001/REC-SVG-20010904/DTD/svg10.dtd">
<svg version="1.0" xmlns="http://www.w3.org/2000/svg"
 width="512.000000pt" height="512.000000pt" viewBox="0 0 512.000000 512.000000"
 preserveAspectRatio="xMidYMid meet">

<g transform="translate(0.000000,512.000000) scale(0.100000,-0.100000)"
fill="#000000" stroke="none">
<path d="M2375 4050 c-16 -5 -55 -24 -85 -42 -148 -89 -206 -283 -132 -442 32
-68 103 -146 152 -166 33 -14 50 -47 50 -101 0 -34 -4 -41 -27 -50 -74 -27
-142 -69 -193 -119 -82 -80 -112 -148 -135 -312 -7 -49 -88 -169 -161 -240
-164 -159 -327 -237 -622 -298 -510 -106 -773 -217 -948 -402 -120 -127 -173
-264 -177 -453 -2 -90 0 -104 23 -145 82 -146 290 -144 366 3 10 17 21 69 25
115 5 48 17 99 29 122 l20 40 1918 -2 1917 -3 22 -41 c15 -28 26 -70 32 -127
9 -91 24 -123 82 -171 87 -74 230 -49 299 52 24 33 25 44 25 166 -1 117 -4
140 -29 211 -109 316 -408 492 -1070 631 -271 57 -404 110 -556 225 -143 108
-236 243 -260 379 -28 159 -144 299 -292 355 l-48 18 0 68 c0 152 -37 225
-142 281 -78 41 -107 87 -88 143 16 48 53 75 104 75 51 0 76 -17 110 -73 30
-53 69 -72 129 -64 58 8 97 52 97 110 0 82 -84 188 -189 238 -51 25 -192 36
-246 19z m199 -73 c49 -14 141 -99 160 -148 13 -32 13 -39 0 -57 -25 -36 -69
-29 -98 16 -45 71 -94 102 -162 102 -132 0 -217 -148 -151 -265 16 -28 39 -49
79 -70 107 -57 128 -92 128 -210 l0 -75 -55 0 -55 0 0 50 c0 68 -21 105 -80
141 -163 100 -198 297 -79 433 83 94 185 122 313 83z m67 -813 c75 -36 128
-79 170 -141 36 -52 69 -143 69 -191 0 -58 74 -184 164 -279 167 -177 350
-270 653 -333 567 -117 865 -257 1009 -475 46 -68 73 -152 86 -267 10 -85 9
-101 -6 -142 -21 -55 -62 -87 -119 -93 -90 -9 -157 66 -157 174 0 237 -264
402 -825 514 -382 76 -575 176 -820 425 -109 110 -138 134 -174 144 -29 7
-110 10 -235 8 -227 -4 -240 -8 -326 -113 -142 -172 -369 -326 -593 -400 -43
-14 -144 -39 -225 -56 -609 -123 -845 -267 -868 -531 -7 -87 -28 -129 -75
-154 -48 -24 -122 -15 -159 21 -43 41 -54 84 -47 184 12 164 63 277 173 386
160 158 428 270 871 364 209 44 311 75 418 129 147 73 278 181 360 297 62 87
81 132 89 204 10 91 40 162 93 222 91 100 187 141 323 136 70 -2 97 -8 151
-33z m55 -737 c12 -7 68 -61 124 -120 122 -128 236 -216 369 -285 135 -70 247
-107 462 -153 232 -49 370 -87 478 -133 90 -38 191 -95 191 -108 0 -4 -831 -8
-1847 -8 l-1848 0 25 21 c48 38 226 118 340 153 64 19 196 51 295 71 209 43
307 72 424 126 148 69 274 160 412 299 69 70 134 132 145 138 27 16 402 15
430 -1z"/>
<path d="M1808 2863 c-8 -10 -25 -34 -37 -55 -12 -20 -50 -63 -86 -96 -99 -93
-217 -156 -367 -197 -66 -17 -89 -38 -73 -65 25 -41 296 62 432 164 105 79
202 211 182 248 -12 23 -32 23 -51 1z"/>
<path d="M1085 2457 c-33 -10 -40 -17 -40 -37 0 -23 3 -25 49 -23 57 2 87 23
70 51 -14 22 -30 24 -79 9z"/>
<path d="M5006 1368 c-2 -13 -9 -47 -15 -77 -10 -46 -9 -57 4 -70 12 -12 20
-13 32 -5 20 12 44 96 41 139 -3 24 -8 31 -30 33 -22 3 -28 -1 -32 -20z"/>
<path d="M4302 1218 c-18 -18 -15 -36 18 -83 82 -119 250 -188 400 -164 89 14
175 58 175 90 0 34 -25 35 -90 4 -81 -38 -165 -43 -255 -16 -61 19 -80 31
-128 79 -32 31 -65 67 -74 80 -20 25 -29 27 -46 10z"/>
</g>
</svg>
